<?xml version="1.0" encoding="UTF-8"?><svg id="Calque_2" xmlns="http://www.w3.org/2000/svg" viewBox="0 0 152.28 117.49"><g id="Calque_1-2"><g><path d="M86.78,57.71c2.64-3.3,7.48-15.85,1.08-15.25-1.19,.11-2.28-.79-3.21-1.58s-1.48-2.35-.77-3.39c.93-1.38,2.88-.66,4.36-.08s3.8,.23,3.72-1.48c-.02-.52-.3-.99-.6-1.39-3.85-5.24-11.17-4.74-16.82-7.38-1.6-.75-3.32-2.32-2.89-4.16,.45-1.94,2.86-2.34,4.64-1.88s3.7,1.33,5.37,.48c-3.52-3.5-6.53-7.6-8.89-12.11-.66-1.26-1.29-2.64-1.23-4.1,.13-3.23,3.72-5.17,6.61-4.51s5.15,3.06,7.24,5.34c2.12,2.32,4.24,4.64,6.36,6.96-.61-2.51,2.49-4.63,4.69-3.65s3.28,3.77,3.49,6.36-.21,5.21,.08,7.79c1.62-1.42,4.23-.14,5.12,1.91s.57,4.46,.2,6.69c-.56,3.35-1.21,6.77-2.86,9.66-1.65,2.89-7.72,5.06-7.72,5.06-3.63,9.28-12.66,15.85-23.22,15.85-13.77,0-24.93-11.16-24.93-24.93,0-6.42,2.42-12.27,6.4-16.68" style="fill:none; stroke:#232323; stroke-miterlimit:10; stroke-width:1.5px;"/><path d="M87.42,56.86c5.43-4.57,8.14-11.17,8.14-18.83,0-7.07-2.94-13.45-7.86-17.99" style="fill:none; stroke:#232323; stroke-miterlimit:10; stroke-width:.75px;"/></g><g><path d="M1.32,83.07c-.33,7.24-.52,14.48-.57,21.73" style="fill:none; stroke:#232323; stroke-miterlimit:10; stroke-width:1.5px;"/><path d="M.98,89.18c.7-2.04,2.94-3.94,5.01-4.53,2.07-.59,4.42-.11,6.09,1.25" style="fill:none; stroke:#232323; stroke-miterlimit:10; stroke-width:1.5px;"/><path d="M50.25,88.02c-2.15-2.41-4.29-4.28-7.51-4.04-1.94,.14-3.69,1.38-4.76,3s-1.53,3.58-1.63,5.52c-.12,2.25,.22,4.51,.98,6.63,.73,2.02,2,4.03,4.02,4.76,2.56,.92,5.5-.63,6.94-2.93,1.44-2.3,1.69-5.15,1.63-7.86s-.37-5.46,.11-8.13c0,10.84,.24,21.67,.69,32.5" style="fill:none; stroke:#232323; stroke-miterlimit:10; stroke-width:1.5px;"/><path d="M59.24,84.17l.59,10.67c.1,1.86,.21,3.76,.84,5.52s1.87,3.39,3.62,4.04c2,.74,4.35,.04,5.91-1.41s2.41-3.54,2.75-5.65,.2-4.25,.07-6.38c-.15-2.4-.3-4.81-.45-7.21" style="fill:none; stroke:#232323; stroke-miterlimit:10; stroke-width:1.5px;"/><path d="M81.74,93.66c4.16,.16,7.81,.33,11.97,.49,.65,.03,1.35,.03,1.85-.38,.53-.43,.65-1.19,.66-1.88,.04-3.08-1.6-6.24-4.37-7.58s-6.56-.46-8.12,2.19c-.44,.75-.7,1.59-.92,2.44-.81,3.07-1.19,6.36-.31,9.41s3.21,5.83,6.31,6.55c3.1,.71,6.76-1.17,7.4-4.29" style="fill:none; stroke:#232323; stroke-miterlimit:10; stroke-width:1.5px;"/><path d="M103.68,72.02c.16,9.02,.61,18.04,1.32,27.03,.14,1.69,.37,3.56,1.66,4.67,1.13,.96,2.78,1.05,4.22,.72,1.11-.25,2.32-.89,2.53-2.02" style="fill:none; stroke:#232323; stroke-miterlimit:10; stroke-width:1.5px;"/><line x1="104.33" y1="84.25" x2="112.24" y2="84.35" style="fill:none; stroke:#232323; stroke-miterlimit:10; stroke-width:1.5px;"/><path d="M120.72,72.35c.16,9.02,.61,18.04,1.32,27.03,.14,1.69,.37,3.56,1.66,4.67,1.13,.96,2.78,1.05,4.22,.72,1.11-.25,2.32-.89,2.53-2.02" style="fill:none; stroke:#232323; stroke-miterlimit:10; stroke-width:1.5px;"/><line x1="121.36" y1="84.59" x2="129.28" y2="84.68" style="fill:none; stroke:#232323; stroke-miterlimit:10; stroke-width:1.5px;"/><path d="M137.04,93.24c4.16,.16,7.81,.33,11.97,.49,.65,.03,1.35,.03,1.85-.38,.53-.43,.65-1.19,.66-1.88,.04-3.08-1.6-6.24-4.37-7.58s-6.56-.46-8.12,2.19c-.44,.75-.7,1.59-.92,2.44-.81,3.07-1.19,6.36-.31,9.41s3.21,5.83,6.31,6.55,6.76-1.17,7.4-4.29" style="fill:none; stroke:#232323; stroke-miterlimit:10; stroke-width:1.5px;"/><path d="M29.07,87.59c-1.54-2.84-3.27-3.25-6.5-3.01-1.94,.14-3.69,1.38-4.76,3s-1.53,3.58-1.63,5.52c-.12,2.25,.22,4.51,.98,6.63,.73,2.02,2,4.03,4.02,4.76,2.56,.92,5.11,.48,7.14-1.33,2.22-1.98,3.95-9.64,.74-15.57Z" style="fill:none; stroke:#232323; stroke-miterlimit:10; stroke-width:1.5px;"/></g></g></svg>